<svg width="147" height="41" xmlns="http://www.w3.org/2000/svg"><g fill="#3A57E0" fill-rule="evenodd"><path d="M124.404 17.444l7.756-1.655a1 1 0 00.791-.978V4.982a1 1 0 00-.791-.978l-7.756-1.654a1 1 0 00-1.209.978v13.138a1 1 0 001.209.978z"/><path d="M136.67 20.667l7.756 1.655a1 1 0 001.208-.978V8.206a1 1 0 00-1.208-.978l-7.757 1.654a1 1 0 00-.791.978v9.829a1 1 0 00.791.978z" opacity=".5"/><path d="M10.047 6.95c2.738 0 4.843.71 6.314 2.13s2.207 3.486 2.207 6.198v7.1c0 .717.045 1.479.134 2.285.09.806.25 1.656.48 2.552h-3.953a2.427 2.427 0 01-.864-.825 6.76 6.76 0 01-.557-1.094l-.115-.768-.46.653c-1.152 1.049-2.162 1.733-3.032 2.053-.87.32-1.792.48-2.764.48-.921 0-1.746-.16-2.476-.48a5.917 5.917 0 01-1.88-1.286 5.432 5.432 0 01-1.19-1.842 5.983 5.983 0 01-.403-2.188c0-.793.166-1.56.499-2.303.332-.742.902-1.413 1.708-2.015.806-.601 1.887-1.113 3.243-1.535 1.356-.422 3.045-.71 5.066-.864-.127.896-.39 1.676-.786 2.342-.397.665-1.005 1.074-1.823 1.228-.973.153-1.677.473-2.112.96a2.456 2.456 0 00-.652 1.688c0 .666.237 1.222.71 1.67a2.397 2.397 0 001.708.672c.742 0 1.484-.25 2.226-.749s1.446-1.145 2.111-1.938v-5.796c0-1.33-.364-2.392-1.094-3.186-.729-.793-1.772-1.19-3.128-1.19a12 12 0 00-2.053.192c-.73.128-1.542.359-2.437.691L3.369 8.408a16.151 16.151 0 013.53-1.113c1.203-.23 2.252-.346 3.148-.346zm40.112 0c2.738 0 4.842.71 6.314 2.13 1.471 1.42 2.207 3.486 2.207 6.198v7.1c0 .717.045 1.479.134 2.285.09.806.25 1.656.48 2.552H55.34a2.427 2.427 0 01-.864-.825 6.76 6.76 0 01-.557-1.094l-.115-.768-.46.653c-1.152 1.049-2.163 1.733-3.033 2.053-.87.32-1.79.48-2.763.48-.921 0-1.746-.16-2.476-.48a5.917 5.917 0 01-1.88-1.286 5.432 5.432 0 01-1.19-1.842 5.983 5.983 0 01-.403-2.188c0-.793.166-1.56.499-2.303.332-.742.902-1.413 1.708-2.015.806-.601 1.887-1.113 3.243-1.535 1.356-.422 3.045-.71 5.066-.864-.128.896-.39 1.676-.786 2.342-.397.665-1.005 1.074-1.824 1.228-.972.153-1.676.473-2.11.96a2.456 2.456 0 00-.653 1.688c0 .666.237 1.222.71 1.67a2.397 2.397 0 001.708.672c.742 0 1.484-.25 2.226-.749s1.446-1.145 2.111-1.938v-5.796c0-1.33-.364-2.392-1.094-3.186-.729-.793-1.772-1.19-3.128-1.19a12 12 0 00-2.053.192c-.73.128-1.542.359-2.438.691L43.48 8.408a16.151 16.151 0 013.532-1.113c1.202-.23 2.251-.346 3.147-.346zM91.014 1v18.615c0 1.305.275 2.322.825 3.052.55.729 1.273 1.094 2.169 1.094a7.89 7.89 0 001.247-.116c.473-.076 1.043-.23 1.708-.46l1.113 3.493c-.972.332-1.823.588-2.552.767a8.63 8.63 0 01-2.054.269c-2.456 0-4.324-.691-5.603-2.073-1.28-1.381-1.92-3.39-1.92-6.026v-8.444h-3.185V8.14l3.185-.768v-4.72L91.014 1zM25.818 7.371L30.27 21.42l.269 1.152.268-1.152 4.414-14.048h5.566L33.34 27.215h-5.72L20.177 7.37h5.642zm48.933-.499c.665 0 1.318.128 1.957.384.64.256 1.21.64 1.708 1.152.5.511.902 1.151 1.21 1.919.306.767.46 1.676.46 2.725v14.163h-5.335V13.129c0-.64-.128-1.165-.384-1.574-.256-.41-.716-.614-1.382-.614-.256 0-.499.032-.729.096a4.61 4.61 0 01-.883.134 1.379 1.379 0 01-.844-.192 3.082 3.082 0 01-.71-.595 6.014 6.014 0 01-.614-.825 35.26 35.26 0 01-.557-.921c1.28-.665 2.393-1.126 3.34-1.382a10.571 10.571 0 012.763-.384zm-8.56.5c.615.69 1.024 1.375 1.229 2.053.205.678.307 1.4.307 2.168v15.622h-5.374V12.208c0-1.485-.204-3.097-.614-4.837zm40.54-.593c1.093 0 2.085.124 2.976.373.909.254 1.695.63 2.354 1.13a5.238 5.238 0 011.549 1.844c.36.723.54 1.541.54 2.446 0 .99-.274 2.006-.812 3.044a20.22 20.22 0 01-1.854 2.906 43.374 43.374 0 01-2.267 2.744l-.171.191-.169.19-.165.186-.082.093-.161.183-.08.09-.157.18-.153.178-.151.175-.148.172-.021.025h6.685v4.286h-13.69V24.81l.08-.186c.272-.625.666-1.28 1.18-1.968a43.238 43.238 0 011.67-2.092l.36-.424.363-.428.366-.43.556-.653.186-.22a36.879 36.879 0 001.68-2.112 14 14 0 001.21-1.936c.284-.56.42-1.067.42-1.522 0-.653-.2-1.106-.606-1.425-.452-.355-1.03-.536-1.756-.536-.355 0-.798.057-1.324.172a9.058 9.058 0 00-1.737.597l-.655.294-1.46-3.734.67-.306c.904-.41 1.753-.7 2.549-.866.81-.17 1.55-.256 2.225-.256zm-8.847.592v3.8h-1.727c-.563 0-1.055-.121-1.478-.364a4.164 4.164 0 01-1.094-.902 5.111 5.111 0 01-.767-1.21 9.923 9.923 0 01-.5-1.324h5.566z" fill-rule="nonzero"/><path d="M3.026 38.081c.262 0 .512-.035.749-.105a1.82 1.82 0 00.62-.318c.176-.141.317-.319.423-.533a1.68 1.68 0 00.16-.752c0-.262-.05-.482-.148-.658a1.386 1.386 0 00-.378-.439 2.065 2.065 0 00-.507-.28c-.184-.07-.362-.133-.533-.188a8.129 8.129 0 01-.416-.137 1.414 1.414 0 01-.321-.158.601.601 0 01-.284-.53c0-.13.03-.243.087-.336a.71.71 0 01.223-.227c.091-.058.192-.1.303-.128a1.275 1.275 0 01.888.09c.184.089.326.198.427.33l.62-.681a2.023 2.023 0 00-.73-.431 2.545 2.545 0 00-.827-.144c-.242 0-.48.032-.715.095a1.985 1.985 0 00-.627.287 1.504 1.504 0 00-.446.488c-.114.196-.17.43-.17.703 0 .252.04.462.12.631.081.169.186.311.314.427.129.116.274.21.435.28.161.07.323.131.484.182l.476.158c.151.05.282.11.393.178.111.068.2.149.265.242.066.093.098.21.098.352a.712.712 0 01-.087.366.783.783 0 01-.227.246.907.907 0 01-.313.14 1.46 1.46 0 01-.34.041 1.48 1.48 0 01-.647-.158 1.367 1.367 0 01-.525-.431l-.681.635c.212.252.484.442.817.57a2.81 2.81 0 001.02.193zm3.564-.136l.483-1.225h2.322l.499 1.225h1.088l-2.306-5.353h-.824l-2.329 5.353H6.59zm2.472-2.041H7.399l.839-2.178.824 2.178zm5.922 2.041V37.1h-2.276v-4.507h-.952v5.353h3.228zm4.561 0V37.1h-2.73v-1.513h2.458v-.801h-2.457v-1.361h2.593v-.832h-3.546v5.353h3.682zm2.61.136c.263 0 .512-.035.75-.105a1.83 1.83 0 00.62-.318c.176-.141.317-.319.423-.533a1.68 1.68 0 00.159-.752c0-.262-.05-.482-.148-.658a1.386 1.386 0 00-.378-.439 2.065 2.065 0 00-.506-.28c-.184-.07-.362-.133-.534-.188a8.129 8.129 0 01-.415-.137 1.414 1.414 0 01-.322-.158.601.601 0 01-.284-.53c0-.13.03-.243.088-.336a.71.71 0 01.223-.227c.09-.058.191-.1.302-.128a1.275 1.275 0 01.888.09c.185.089.327.198.428.33l.62-.681a2.023 2.023 0 00-.73-.431 2.545 2.545 0 00-.828-.144c-.242 0-.48.032-.714.095a1.985 1.985 0 00-.628.287 1.504 1.504 0 00-.446.488c-.113.196-.17.43-.17.703 0 .252.04.462.12.631.082.169.186.311.315.427.128.116.273.21.434.28.162.07.323.131.484.182l.477.158c.15.05.282.11.393.178.11.068.199.149.264.242.066.093.099.21.099.352a.712.712 0 01-.087.366.783.783 0 01-.227.246.907.907 0 01-.314.14 1.46 1.46 0 01-.34.041 1.48 1.48 0 01-.646-.158 1.367 1.367 0 01-.526-.431l-.68.635c.211.252.483.442.816.57a2.81 2.81 0 001.02.193zm6.19-.136v-4.302h.015l1.603 4.302h.665l1.626-4.302h.015v4.302h.945v-5.353h-1.497l-1.376 3.803h-.023l-1.391-3.803h-1.49v5.353h.908zm6.708 0l.484-1.225h2.321l.5 1.225h1.088l-2.306-5.353h-.824l-2.329 5.353h1.066zm2.473-2.041h-1.664l.84-2.178.824 2.178zm3.646 2.041V33.81h.015l2.54 4.135h1.21v-5.353h-.952V36.6h-.015l-2.488-4.008h-1.263v5.353h.953zm5.605 0l.483-1.225h2.322l.499 1.225h1.089l-2.307-5.353h-.824l-2.329 5.353h1.067zm2.472-2.041h-1.663l.839-2.178.824 2.178zm5.227 2.177c.423 0 .797-.036 1.122-.11.326-.072.624-.174.896-.305V34.89h-2.049v.786h1.127v1.361a2.759 2.759 0 01-1.066.19c-.298 0-.563-.05-.798-.148a1.7 1.7 0 01-.597-.412 1.84 1.84 0 01-.378-.624 2.27 2.27 0 01-.133-.79 2.2 2.2 0 01.133-.772 1.88 1.88 0 01.374-.62c.161-.176.357-.315.586-.415.23-.101.485-.152.767-.152.288 0 .554.053.798.16.245.105.435.234.571.385l.658-.711c-.217-.202-.503-.364-.858-.488a3.562 3.562 0 00-1.176-.185c-.413 0-.796.066-1.15.197a2.72 2.72 0 00-.918.56c-.26.241-.464.535-.612.88a2.906 2.906 0 00-.223 1.16c0 .419.071.8.215 1.146.144.345.344.643.601.892.257.25.565.444.923.583.357.138.753.207 1.187.207zm7.101-.136V37.1h-2.73v-1.513h2.458v-.801h-2.457v-1.361h2.593v-.832h-3.546v5.353h3.682zm2.127 0v-2.268h.696l1.24 2.268h1.149l-1.43-2.374c.379-.085.677-.25.897-.495.219-.244.329-.56.329-.949 0-.282-.056-.522-.167-.718a1.36 1.36 0 00-.442-.477 1.886 1.886 0 00-.631-.26 3.354 3.354 0 00-.734-.08h-1.86v5.353h.953zm.779-3.047h-.78v-1.504h.863c.12 0 .246.01.374.03.129.02.243.058.344.113.101.056.184.13.25.223a.61.61 0 01.098.36.69.69 0 01-.106.396.716.716 0 01-.268.239c-.109.055-.23.093-.367.113a2.8 2.8 0 01-.408.03z" fill-rule="nonzero" opacity=".7"/></g></svg>